# xmcd
#
# Track frame offsets:
#	150
#	16987
#	34387
#	51597
#	70510
#	90385
#	105647
#	127185
#
# Disc length: 1904 seconds
#
# Revision: 6
# Processed by: cddbd v1.5PL3 Copyright (c) Steve Scherf et al.
# Submitted via: dBpowerAMP V4.0
#
DISCID=69076e08
DTITLE=The★Tambourines - My Back Pages
DYEAR=1900
DGENRE=Other
TTITLE0=Easy Game
TTITLE1=Stay Young
TTITLE2=真夜中気づいたFunny Love
TTITLE3=クローバー
TTITLE4=Live Flower(Album Mix)
TTITLE5=Hijack Brandnew Days
TTITLE6=Star
TTITLE7=My Back Pages
EXTD=
EXTT0=
EXTT1=
EXTT2=
EXTT3=
EXTT4=
EXTT5=
EXTT6=
EXTT7=
PLAYORDER=
